<svg xmlns="http://www.w3.org/2000/svg" viewBox="0 0 62.24 48.94"><defs><style>.cls-1{fill:#f9fcfd;}.cls-2{fill:none;stroke:#34c1f0;stroke-miterlimit:10;stroke-width:0.6px;}</style></defs><title>LOGO1</title><g id="Capa_2" data-name="Capa 2"><g id="Capa_1-2" data-name="Capa 1"><path class="cls-1" d="M31.12,2.48c-15.46,0-28,9.87-28,22,0,11.41,11.14,20.82,25.34,21.89v-14l-6.49-4.95v-6.8a2.25,2.25,0,0,0,1.94-2c0-2.78-5.37-2.78-5.37,0a2.25,2.25,0,0,0,1.94,2V24l-2.75-1.63V16.49c2.94-.69,2.3-4.12-.77-4.12s-3.72,3.48-.72,4.13V23l4.24,2.51v2.39l1.36,1h-4l-4.26-3.24c1.17-1.39-.11-3.26-2.24-3.26-4.3,0-2.93,5.45,1.1,4l4.79,3.65h6.13l3.6,2.74V45C14.31,43.46,4.57,34.86,4.57,24.47,4.57,13,16.48,3.64,31.12,3.64S57.68,13,57.68,24.47c0,10.66-10.26,19.47-23.46,20.68v-1.3C46.47,42.65,56,34.43,56,24.47,56,13.7,44.85,4.94,31.12,4.94S6.22,13.7,6.22,24.47c0,9.24,8.22,17,19.22,19V42.42c-10.27-2-17.9-9.29-17.9-17.95C7.54,14.27,18.12,6,31.12,6S54.7,14.27,54.7,24.47c0,9.38-9,17.14-20.49,18.33V33.28l.4-.24H39l7-2.91c1.68,1.34,4.59.4,4.59-1.47,0-3.09-6.14-2.57-5.3.45l-6.63,2.77H36.58l12.08-7.15V18c3-.67,2.35-4.12-.74-4.12s-3.7,3.45-.74,4.12v6.16L38,29.56v-4l4.71-2.65V20c3-.67,2.35-4.12-.74-4.12s-3.7,3.45-.74,4.12v2.31l-4.71,2.65v5.5l-3.8,2.25V46.42c14.72-.66,26.44-10.26,26.44-22C59.16,12.34,46.58,2.48,31.12,2.48ZM16.25,13.69a1.49,1.49,0,0,1,1.52.12c.61.47.42,1.48-.71,1.59C15.57,15.41,15.34,14.16,16.25,13.69Zm-5.8,11.47c-.72-.58-.27-1.61.85-1.61.68,0,1.19.4,1.19.94C12.5,25.37,11.19,25.73,10.45,25.17ZM20,18.54c0-1.24,2.39-1.24,2.39,0S20,19.78,20,18.54Zm27.94,9.18c.68,0,1.2.4,1.2.94s-.51.94-1.2.94-1.19-.4-1.19-.94S47.24,27.73,47.92,27.73Zm0-12.69c1.6,0,1.6,1.86,0,1.86S46.33,15,47.92,15ZM42,17c1.58,0,1.58,1.87,0,1.87S40.4,17,42,17Z"/><path class="cls-2" d="M31.12.3C14.13.3.3,11.14.3,24.47.3,39.17,17,50.57,35.7,48.37c14.83-1.74,26.24-11.8,26.24-23.9C61.94,11.14,48.12.3,31.12.3Zm.17,47.28V27.43L35,24.62V15.79l3.63-3.11c4,1.34,5.29-4,1-4-2.16,0-3.44,1.92-2.2,3.31l-4,3.39v8.79L29.8,26.93v.82L27.19,25.8V21.27l0,0L32,18.23V11.61c2.72-.87,1.91-4.05-1-4.05a2.45,2.45,0,0,0-2.68,2.1,2.33,2.33,0,0,0,2.21,2.07v5.94l-3.36,2.16v-4.3a2.2,2.2,0,0,0,1.74-2c0-2.78-5.37-2.78-5.37,0a2.31,2.31,0,0,0,2.14,2.06V26.3l4.1,3.06v18.2C14.17,47,1.65,36.87,1.65,24.47c0-12.74,13.22-23.11,29.48-23.11S60.6,11.72,60.6,24.47,47.47,47.51,31.29,47.58ZM39.71,9.8c2,0,1.27,2.46-.52,1.78l-.5-.36C38.2,10.58,38.8,9.8,39.71,9.8Zm-13,4.63H25.8c-1.16-.37-.95-1.8.44-1.8S27.84,14.07,26.69,14.43ZM31,10.6a1.09,1.09,0,0,1-1.19-.94,1.23,1.23,0,0,1,2.39,0A1.09,1.09,0,0,1,31,10.6Z"/></g></g></svg>